<mxfile host="app.diagrams.net" agent="Mozilla/5.0 (Macintosh; Intel Mac OS X 10_15_7) AppleWebKit/537.36 (KHTML, like Gecko) Chrome/127.0.0.0 Safari/537.36" version="24.7.8">
  <diagram name="第 1 页" id="xsEOwXCZdJ9GpHTv20ah">
    <mxGraphModel dx="808" dy="500" grid="1" gridSize="10" guides="1" tooltips="1" connect="1" arrows="1" fold="1" page="1" pageScale="1" pageWidth="827" pageHeight="1169" math="0" shadow="0">
      <root>
        <mxCell id="0" />
        <mxCell id="1" parent="0" />
        <mxCell id="VcEVVjLlVE1N0P9RPst1-15" style="rounded=0;orthogonalLoop=1;jettySize=auto;html=1;exitX=0;exitY=1;exitDx=0;exitDy=0;entryX=0.5;entryY=0;entryDx=0;entryDy=0;" edge="1" parent="1" source="VcEVVjLlVE1N0P9RPst1-1" target="VcEVVjLlVE1N0P9RPst1-2">
          <mxGeometry relative="1" as="geometry" />
        </mxCell>
        <mxCell id="VcEVVjLlVE1N0P9RPst1-16" style="rounded=0;orthogonalLoop=1;jettySize=auto;html=1;entryX=0.5;entryY=0;entryDx=0;entryDy=0;exitX=0.5;exitY=1;exitDx=0;exitDy=0;" edge="1" parent="1" source="VcEVVjLlVE1N0P9RPst1-1" target="VcEVVjLlVE1N0P9RPst1-3">
          <mxGeometry relative="1" as="geometry" />
        </mxCell>
        <mxCell id="VcEVVjLlVE1N0P9RPst1-17" style="rounded=0;orthogonalLoop=1;jettySize=auto;html=1;entryX=0.5;entryY=0;entryDx=0;entryDy=0;exitX=1;exitY=1;exitDx=0;exitDy=0;" edge="1" parent="1" source="VcEVVjLlVE1N0P9RPst1-1" target="VcEVVjLlVE1N0P9RPst1-4">
          <mxGeometry relative="1" as="geometry" />
        </mxCell>
        <mxCell id="VcEVVjLlVE1N0P9RPst1-18" style="rounded=0;orthogonalLoop=1;jettySize=auto;html=1;entryX=0.5;entryY=0;entryDx=0;entryDy=0;" edge="1" parent="1" source="VcEVVjLlVE1N0P9RPst1-1" target="VcEVVjLlVE1N0P9RPst1-5">
          <mxGeometry relative="1" as="geometry" />
        </mxCell>
        <mxCell id="VcEVVjLlVE1N0P9RPst1-1" value="root" style="ellipse;whiteSpace=wrap;html=1;aspect=fixed;" vertex="1" parent="1">
          <mxGeometry x="310" y="50" width="40" height="40" as="geometry" />
        </mxCell>
        <mxCell id="VcEVVjLlVE1N0P9RPst1-19" style="rounded=0;orthogonalLoop=1;jettySize=auto;html=1;entryX=0.5;entryY=0;entryDx=0;entryDy=0;" edge="1" parent="1" source="VcEVVjLlVE1N0P9RPst1-2" target="VcEVVjLlVE1N0P9RPst1-6">
          <mxGeometry relative="1" as="geometry" />
        </mxCell>
        <mxCell id="VcEVVjLlVE1N0P9RPst1-20" style="rounded=0;orthogonalLoop=1;jettySize=auto;html=1;entryX=0.5;entryY=0;entryDx=0;entryDy=0;" edge="1" parent="1" source="VcEVVjLlVE1N0P9RPst1-2" target="VcEVVjLlVE1N0P9RPst1-7">
          <mxGeometry relative="1" as="geometry" />
        </mxCell>
        <mxCell id="VcEVVjLlVE1N0P9RPst1-2" value="a" style="ellipse;whiteSpace=wrap;html=1;aspect=fixed;" vertex="1" parent="1">
          <mxGeometry x="180" y="120" width="40" height="40" as="geometry" />
        </mxCell>
        <mxCell id="VcEVVjLlVE1N0P9RPst1-3" value="b" style="ellipse;whiteSpace=wrap;html=1;aspect=fixed;fillColor=#d5e8d4;gradientColor=#97d077;strokeColor=#82b366;" vertex="1" parent="1">
          <mxGeometry x="270" y="120" width="40" height="40" as="geometry" />
        </mxCell>
        <mxCell id="VcEVVjLlVE1N0P9RPst1-21" style="rounded=0;orthogonalLoop=1;jettySize=auto;html=1;entryX=0.5;entryY=0;entryDx=0;entryDy=0;" edge="1" parent="1" source="VcEVVjLlVE1N0P9RPst1-4" target="VcEVVjLlVE1N0P9RPst1-8">
          <mxGeometry relative="1" as="geometry" />
        </mxCell>
        <mxCell id="VcEVVjLlVE1N0P9RPst1-22" style="rounded=0;orthogonalLoop=1;jettySize=auto;html=1;entryX=0.5;entryY=0;entryDx=0;entryDy=0;" edge="1" parent="1" source="VcEVVjLlVE1N0P9RPst1-4" target="VcEVVjLlVE1N0P9RPst1-9">
          <mxGeometry relative="1" as="geometry" />
        </mxCell>
        <mxCell id="VcEVVjLlVE1N0P9RPst1-23" style="rounded=0;orthogonalLoop=1;jettySize=auto;html=1;exitX=1;exitY=1;exitDx=0;exitDy=0;entryX=0.5;entryY=0;entryDx=0;entryDy=0;" edge="1" parent="1" source="VcEVVjLlVE1N0P9RPst1-4" target="VcEVVjLlVE1N0P9RPst1-10">
          <mxGeometry relative="1" as="geometry" />
        </mxCell>
        <mxCell id="VcEVVjLlVE1N0P9RPst1-4" value="c" style="ellipse;whiteSpace=wrap;html=1;aspect=fixed;" vertex="1" parent="1">
          <mxGeometry x="370" y="120" width="40" height="40" as="geometry" />
        </mxCell>
        <mxCell id="VcEVVjLlVE1N0P9RPst1-24" style="rounded=0;orthogonalLoop=1;jettySize=auto;html=1;entryX=0.5;entryY=0;entryDx=0;entryDy=0;" edge="1" parent="1" source="VcEVVjLlVE1N0P9RPst1-5" target="VcEVVjLlVE1N0P9RPst1-11">
          <mxGeometry relative="1" as="geometry" />
        </mxCell>
        <mxCell id="VcEVVjLlVE1N0P9RPst1-5" value="d" style="ellipse;whiteSpace=wrap;html=1;aspect=fixed;" vertex="1" parent="1">
          <mxGeometry x="530" y="120" width="40" height="40" as="geometry" />
        </mxCell>
        <mxCell id="VcEVVjLlVE1N0P9RPst1-6" value="e" style="ellipse;whiteSpace=wrap;html=1;aspect=fixed;fillColor=#d5e8d4;strokeColor=#82b366;gradientColor=#97d077;" vertex="1" parent="1">
          <mxGeometry x="140" y="220" width="40" height="40" as="geometry" />
        </mxCell>
        <mxCell id="VcEVVjLlVE1N0P9RPst1-7" value="f" style="ellipse;whiteSpace=wrap;html=1;aspect=fixed;fillColor=#d5e8d4;gradientColor=#97d077;strokeColor=#82b366;" vertex="1" parent="1">
          <mxGeometry x="200" y="220" width="40" height="40" as="geometry" />
        </mxCell>
        <mxCell id="VcEVVjLlVE1N0P9RPst1-8" value="g" style="ellipse;whiteSpace=wrap;html=1;aspect=fixed;fillColor=#d5e8d4;gradientColor=#97d077;strokeColor=#82b366;" vertex="1" parent="1">
          <mxGeometry x="320" y="220" width="40" height="40" as="geometry" />
        </mxCell>
        <mxCell id="VcEVVjLlVE1N0P9RPst1-26" style="edgeStyle=orthogonalEdgeStyle;rounded=0;orthogonalLoop=1;jettySize=auto;html=1;entryX=0.5;entryY=0;entryDx=0;entryDy=0;" edge="1" parent="1" source="VcEVVjLlVE1N0P9RPst1-9" target="VcEVVjLlVE1N0P9RPst1-13">
          <mxGeometry relative="1" as="geometry" />
        </mxCell>
        <mxCell id="VcEVVjLlVE1N0P9RPst1-9" value="h" style="ellipse;whiteSpace=wrap;html=1;aspect=fixed;fillColor=#d5e8d4;gradientColor=#97d077;strokeColor=#82b366;" vertex="1" parent="1">
          <mxGeometry x="370" y="220" width="40" height="40" as="geometry" />
        </mxCell>
        <mxCell id="VcEVVjLlVE1N0P9RPst1-10" value="l" style="ellipse;whiteSpace=wrap;html=1;aspect=fixed;fillColor=#d5e8d4;gradientColor=#97d077;strokeColor=#82b366;" vertex="1" parent="1">
          <mxGeometry x="420" y="220" width="40" height="40" as="geometry" />
        </mxCell>
        <mxCell id="VcEVVjLlVE1N0P9RPst1-11" value="m" style="ellipse;whiteSpace=wrap;html=1;aspect=fixed;fillColor=#d5e8d4;gradientColor=#97d077;strokeColor=#82b366;" vertex="1" parent="1">
          <mxGeometry x="510" y="220" width="40" height="40" as="geometry" />
        </mxCell>
        <mxCell id="VcEVVjLlVE1N0P9RPst1-27" style="rounded=0;orthogonalLoop=1;jettySize=auto;html=1;entryX=0.5;entryY=0;entryDx=0;entryDy=0;" edge="1" parent="1" source="VcEVVjLlVE1N0P9RPst1-13" target="VcEVVjLlVE1N0P9RPst1-14">
          <mxGeometry relative="1" as="geometry" />
        </mxCell>
        <mxCell id="VcEVVjLlVE1N0P9RPst1-13" value="p" style="ellipse;whiteSpace=wrap;html=1;aspect=fixed;" vertex="1" parent="1">
          <mxGeometry x="370" y="300" width="40" height="40" as="geometry" />
        </mxCell>
        <mxCell id="VcEVVjLlVE1N0P9RPst1-14" value="q" style="ellipse;whiteSpace=wrap;html=1;aspect=fixed;fillColor=#d5e8d4;gradientColor=#97d077;strokeColor=#82b366;" vertex="1" parent="1">
          <mxGeometry x="370" y="370" width="40" height="40" as="geometry" />
        </mxCell>
        <mxCell id="VcEVVjLlVE1N0P9RPst1-58" style="rounded=0;orthogonalLoop=1;jettySize=auto;html=1;exitX=0;exitY=1;exitDx=0;exitDy=0;entryX=0.5;entryY=0;entryDx=0;entryDy=0;" edge="1" parent="1" source="VcEVVjLlVE1N0P9RPst1-62" target="VcEVVjLlVE1N0P9RPst1-65">
          <mxGeometry relative="1" as="geometry" />
        </mxCell>
        <mxCell id="VcEVVjLlVE1N0P9RPst1-59" style="rounded=0;orthogonalLoop=1;jettySize=auto;html=1;entryX=0.5;entryY=0;entryDx=0;entryDy=0;exitX=0.5;exitY=1;exitDx=0;exitDy=0;" edge="1" parent="1" source="VcEVVjLlVE1N0P9RPst1-62" target="VcEVVjLlVE1N0P9RPst1-66">
          <mxGeometry relative="1" as="geometry" />
        </mxCell>
        <mxCell id="VcEVVjLlVE1N0P9RPst1-60" style="rounded=0;orthogonalLoop=1;jettySize=auto;html=1;entryX=0.5;entryY=0;entryDx=0;entryDy=0;exitX=1;exitY=1;exitDx=0;exitDy=0;" edge="1" parent="1" source="VcEVVjLlVE1N0P9RPst1-62" target="VcEVVjLlVE1N0P9RPst1-70">
          <mxGeometry relative="1" as="geometry" />
        </mxCell>
        <mxCell id="VcEVVjLlVE1N0P9RPst1-61" style="rounded=0;orthogonalLoop=1;jettySize=auto;html=1;entryX=0.5;entryY=0;entryDx=0;entryDy=0;" edge="1" parent="1" source="VcEVVjLlVE1N0P9RPst1-62" target="VcEVVjLlVE1N0P9RPst1-72">
          <mxGeometry relative="1" as="geometry" />
        </mxCell>
        <mxCell id="VcEVVjLlVE1N0P9RPst1-62" value="root" style="ellipse;whiteSpace=wrap;html=1;aspect=fixed;" vertex="1" parent="1">
          <mxGeometry x="320" y="480" width="40" height="40" as="geometry" />
        </mxCell>
        <mxCell id="VcEVVjLlVE1N0P9RPst1-63" style="rounded=0;orthogonalLoop=1;jettySize=auto;html=1;entryX=0.5;entryY=0;entryDx=0;entryDy=0;" edge="1" parent="1" source="VcEVVjLlVE1N0P9RPst1-65" target="VcEVVjLlVE1N0P9RPst1-73">
          <mxGeometry relative="1" as="geometry" />
        </mxCell>
        <mxCell id="VcEVVjLlVE1N0P9RPst1-64" style="rounded=0;orthogonalLoop=1;jettySize=auto;html=1;entryX=0.5;entryY=0;entryDx=0;entryDy=0;" edge="1" parent="1" source="VcEVVjLlVE1N0P9RPst1-65" target="VcEVVjLlVE1N0P9RPst1-74">
          <mxGeometry relative="1" as="geometry" />
        </mxCell>
        <mxCell id="VcEVVjLlVE1N0P9RPst1-65" value="a" style="ellipse;whiteSpace=wrap;html=1;aspect=fixed;" vertex="1" parent="1">
          <mxGeometry x="190" y="550" width="40" height="40" as="geometry" />
        </mxCell>
        <mxCell id="VcEVVjLlVE1N0P9RPst1-66" value="b" style="ellipse;whiteSpace=wrap;html=1;aspect=fixed;fillColor=#d5e8d4;gradientColor=#97d077;strokeColor=#82b366;" vertex="1" parent="1">
          <mxGeometry x="280" y="550" width="40" height="40" as="geometry" />
        </mxCell>
        <mxCell id="VcEVVjLlVE1N0P9RPst1-67" style="rounded=0;orthogonalLoop=1;jettySize=auto;html=1;entryX=0.5;entryY=0;entryDx=0;entryDy=0;" edge="1" parent="1" source="VcEVVjLlVE1N0P9RPst1-70" target="VcEVVjLlVE1N0P9RPst1-75">
          <mxGeometry relative="1" as="geometry" />
        </mxCell>
        <mxCell id="VcEVVjLlVE1N0P9RPst1-68" style="rounded=0;orthogonalLoop=1;jettySize=auto;html=1;entryX=0.5;entryY=0;entryDx=0;entryDy=0;" edge="1" parent="1" source="VcEVVjLlVE1N0P9RPst1-70" target="VcEVVjLlVE1N0P9RPst1-77">
          <mxGeometry relative="1" as="geometry" />
        </mxCell>
        <mxCell id="VcEVVjLlVE1N0P9RPst1-69" style="rounded=0;orthogonalLoop=1;jettySize=auto;html=1;exitX=1;exitY=1;exitDx=0;exitDy=0;entryX=0.5;entryY=0;entryDx=0;entryDy=0;" edge="1" parent="1" source="VcEVVjLlVE1N0P9RPst1-70" target="VcEVVjLlVE1N0P9RPst1-78">
          <mxGeometry relative="1" as="geometry" />
        </mxCell>
        <mxCell id="VcEVVjLlVE1N0P9RPst1-70" value="c" style="ellipse;whiteSpace=wrap;html=1;aspect=fixed;" vertex="1" parent="1">
          <mxGeometry x="380" y="550" width="40" height="40" as="geometry" />
        </mxCell>
        <mxCell id="VcEVVjLlVE1N0P9RPst1-72" value="dm" style="ellipse;whiteSpace=wrap;html=1;aspect=fixed;fillColor=#d5e8d4;gradientColor=#97d077;strokeColor=#82b366;" vertex="1" parent="1">
          <mxGeometry x="540" y="550" width="40" height="40" as="geometry" />
        </mxCell>
        <mxCell id="VcEVVjLlVE1N0P9RPst1-73" value="e" style="ellipse;whiteSpace=wrap;html=1;aspect=fixed;fillColor=#d5e8d4;strokeColor=#82b366;gradientColor=#97d077;" vertex="1" parent="1">
          <mxGeometry x="150" y="650" width="40" height="40" as="geometry" />
        </mxCell>
        <mxCell id="VcEVVjLlVE1N0P9RPst1-74" value="f" style="ellipse;whiteSpace=wrap;html=1;aspect=fixed;fillColor=#d5e8d4;gradientColor=#97d077;strokeColor=#82b366;" vertex="1" parent="1">
          <mxGeometry x="210" y="650" width="40" height="40" as="geometry" />
        </mxCell>
        <mxCell id="VcEVVjLlVE1N0P9RPst1-75" value="g" style="ellipse;whiteSpace=wrap;html=1;aspect=fixed;fillColor=#d5e8d4;gradientColor=#97d077;strokeColor=#82b366;" vertex="1" parent="1">
          <mxGeometry x="330" y="650" width="40" height="40" as="geometry" />
        </mxCell>
        <mxCell id="VcEVVjLlVE1N0P9RPst1-76" style="edgeStyle=orthogonalEdgeStyle;rounded=0;orthogonalLoop=1;jettySize=auto;html=1;entryX=0.5;entryY=0;entryDx=0;entryDy=0;" edge="1" parent="1" source="VcEVVjLlVE1N0P9RPst1-77" target="VcEVVjLlVE1N0P9RPst1-81">
          <mxGeometry relative="1" as="geometry" />
        </mxCell>
        <mxCell id="VcEVVjLlVE1N0P9RPst1-77" value="hpq" style="ellipse;whiteSpace=wrap;html=1;aspect=fixed;fillColor=#d5e8d4;gradientColor=#97d077;strokeColor=#82b366;" vertex="1" parent="1">
          <mxGeometry x="380" y="650" width="40" height="40" as="geometry" />
        </mxCell>
        <mxCell id="VcEVVjLlVE1N0P9RPst1-78" value="l" style="ellipse;whiteSpace=wrap;html=1;aspect=fixed;fillColor=#d5e8d4;gradientColor=#97d077;strokeColor=#82b366;" vertex="1" parent="1">
          <mxGeometry x="430" y="650" width="40" height="40" as="geometry" />
        </mxCell>
        <mxCell id="VcEVVjLlVE1N0P9RPst1-80" style="rounded=0;orthogonalLoop=1;jettySize=auto;html=1;entryX=0.5;entryY=0;entryDx=0;entryDy=0;" edge="1" parent="1" source="VcEVVjLlVE1N0P9RPst1-81" target="VcEVVjLlVE1N0P9RPst1-82">
          <mxGeometry relative="1" as="geometry" />
        </mxCell>
        <mxCell id="VcEVVjLlVE1N0P9RPst1-81" value="p" style="ellipse;whiteSpace=wrap;html=1;aspect=fixed;" vertex="1" parent="1">
          <mxGeometry x="380" y="730" width="40" height="40" as="geometry" />
        </mxCell>
        <mxCell id="VcEVVjLlVE1N0P9RPst1-82" value="q" style="ellipse;whiteSpace=wrap;html=1;aspect=fixed;fillColor=#d5e8d4;gradientColor=#97d077;strokeColor=#82b366;" vertex="1" parent="1">
          <mxGeometry x="380" y="800" width="40" height="40" as="geometry" />
        </mxCell>
      </root>
    </mxGraphModel>
  </diagram>
</mxfile>
